<?xml version="1.0" encoding="UTF-8"?>
<svg width="32" height="32" viewBox="0 0 32 32" fill="none" xmlns="http://www.w3.org/2000/svg">
  <circle cx="16" cy="16" r="15" stroke="#2563EB" stroke-width="2"/>
  <path d="M17.5 8.5C17.5 7.67157 16.8284 7 16 7C15.1716 7 14.5 7.67157 14.5 8.5V9.5C12.567 9.5 11 11.067 11 13C11 14.933 12.567 16.5 14.5 16.5H17.5C18.3284 16.5 19 17.1716 19 18C19 18.8284 18.3284 19.5 17.5 19.5H11.5C10.6716 19.5 10 20.1716 10 21C10 21.8284 10.6716 22.5 11.5 22.5H14.5V23.5C14.5 24.3284 15.1716 25 16 25C16.8284 25 17.5 24.3284 17.5 23.5V22.5C19.433 22.5 21 20.933 21 19C21 17.067 19.433 15.5 17.5 15.5H14.5C13.6716 15.5 13 14.8284 13 14C13 13.1716 13.6716 12.5 14.5 12.5H20.5C21.3284 12.5 22 11.8284 22 11C22 10.1716 21.3284 9.5 20.5 9.5H17.5V8.5Z" fill="#2563EB"/>
</svg> 